<svg xmlns="http://www.w3.org/2000/svg" xmlns:xlink="http://www.w3.org/1999/xlink" width="361" zoomAndPan="magnify" viewBox="0 0 270.75 72.749999" height="97" preserveAspectRatio="xMidYMid meet" version="1.0"><defs><g/><clipPath id="3fa8e8eb78"><path d="M 0.488281 0 L 261.269531 0 L 261.269531 71.753906 L 0.488281 71.753906 Z M 0.488281 0 " clip-rule="nonzero"/></clipPath><clipPath id="330e4726bc"><path d="M 7.535156 6.75 L 130.882812 6.75 L 130.882812 65.074219 L 7.535156 65.074219 Z M 7.535156 6.75 " clip-rule="nonzero"/></clipPath></defs><g clip-path="url(#3fa8e8eb78)"><path stroke-linecap="butt" transform="matrix(0.747431, 0, 0, 0.747431, 0.487892, 0.000830041)" fill="none" stroke-linejoin="miter" d="M 0.000520597 -0.00111052 L 348.903745 -0.00111052 L 348.903745 96.093611 L 0.000520597 96.093611 Z M 0.000520597 -0.00111052 " stroke="#000000" stroke-width="6" stroke-opacity="1" stroke-miterlimit="4"/></g><g clip-path="url(#330e4726bc)"><path fill="#000000" d="M 7.535156 6.75 L 130.789062 6.75 L 130.789062 65.074219 L 7.535156 65.074219 Z M 7.535156 6.75 " fill-opacity="1" fill-rule="nonzero"/></g><g fill="#ffffff" fill-opacity="1"><g transform="translate(12.007207, 44.999006)"><g><path d="M 2.859375 0 L 2.859375 -19.59375 L 5.3125 -19.59375 L 5.3125 -2.34375 L 14.828125 -2.34375 L 14.828125 0 Z M 2.859375 0 "/></g></g></g><g fill="#ffffff" fill-opacity="1"><g transform="translate(29.832557, 44.999006)"><g><path d="M 2.859375 0 L 2.859375 -19.59375 L 14.75 -19.59375 L 14.75 -17.296875 L 5.3125 -17.296875 L 5.3125 -11.109375 L 14.046875 -11.109375 L 14.046875 -8.84375 L 5.3125 -8.84375 L 5.3125 -2.296875 L 15.0625 -2.296875 L 15.0625 0 Z M 2.859375 0 "/></g></g></g><g fill="#ffffff" fill-opacity="1"><g transform="translate(48.833148, 44.999006)"><g><path d="M 7.578125 0 L 7.578125 -17.234375 L 0.953125 -17.234375 L 0.953125 -19.59375 L 16.65625 -19.59375 L 16.65625 -17.234375 L 10.046875 -17.234375 L 10.046875 0 Z M 7.578125 0 "/></g></g></g><g fill="#ffffff" fill-opacity="1"><g transform="translate(68.589244, 44.999006)"><g><path d="M 7.578125 0 L 7.578125 -17.234375 L 0.953125 -17.234375 L 0.953125 -19.59375 L 16.65625 -19.59375 L 16.65625 -17.234375 L 10.046875 -17.234375 L 10.046875 0 Z M 7.578125 0 "/></g></g></g><g fill="#ffffff" fill-opacity="1"><g transform="translate(88.345341, 44.999006)"><g><path d="M 2.859375 0 L 2.859375 -19.59375 L 14.75 -19.59375 L 14.75 -17.296875 L 5.3125 -17.296875 L 5.3125 -11.109375 L 14.046875 -11.109375 L 14.046875 -8.84375 L 5.3125 -8.84375 L 5.3125 -2.296875 L 15.0625 -2.296875 L 15.0625 0 Z M 2.859375 0 "/></g></g></g><g fill="#ffffff" fill-opacity="1"><g transform="translate(107.345932, 44.999006)"><g><path d="M 2.859375 0 L 2.859375 -19.59375 L 10.328125 -19.59375 C 11.691406 -19.59375 12.875 -19.332031 13.875 -18.8125 C 14.882812 -18.300781 15.671875 -17.578125 16.234375 -16.640625 C 16.796875 -15.710938 17.078125 -14.597656 17.078125 -13.296875 C 17.078125 -11.703125 16.664062 -10.390625 15.84375 -9.359375 C 15.019531 -8.328125 13.890625 -7.632812 12.453125 -7.28125 L 17.375 0 L 14.40625 0 L 9.625 -7.03125 L 5.3125 -7.03125 L 5.3125 0 Z M 5.3125 -9.375 L 10.046875 -9.375 C 11.484375 -9.375 12.59375 -9.710938 13.375 -10.390625 C 14.15625 -11.078125 14.546875 -12.046875 14.546875 -13.296875 C 14.546875 -14.546875 14.15625 -15.515625 13.375 -16.203125 C 12.59375 -16.890625 11.484375 -17.234375 10.046875 -17.234375 L 5.3125 -17.234375 Z M 5.3125 -9.375 "/></g></g></g><g fill="#000000" fill-opacity="1"><g transform="translate(154.529014, 45.149743)"><g><path d="M 13.765625 0 L 13.765625 -7.359375 L 7.71875 -7.359375 L 7.71875 0 L 2.078125 0 L 2.078125 -19.59375 L 7.71875 -19.59375 L 7.71875 -12.5625 L 13.765625 -12.5625 L 13.765625 -19.59375 L 19.421875 -19.59375 L 19.421875 0 Z M 13.765625 0 "/></g></g></g><g fill="#000000" fill-opacity="1"><g transform="translate(176.024438, 45.149743)"><g><path d="M 10.5 0.421875 C 8.738281 0.421875 7.210938 0.0820312 5.921875 -0.59375 C 4.640625 -1.28125 3.648438 -2.253906 2.953125 -3.515625 C 2.253906 -4.785156 1.90625 -6.300781 1.90625 -8.0625 L 1.90625 -19.59375 L 7.5625 -19.59375 L 7.5625 -8.421875 C 7.5625 -6.054688 8.539062 -4.875 10.5 -4.875 C 12.457031 -4.875 13.4375 -6.054688 13.4375 -8.421875 L 13.4375 -19.59375 L 19.0625 -19.59375 L 19.0625 -8.0625 C 19.0625 -6.300781 18.710938 -4.785156 18.015625 -3.515625 C 17.328125 -2.253906 16.34375 -1.28125 15.0625 -0.59375 C 13.789062 0.0820312 12.269531 0.421875 10.5 0.421875 Z M 10.5 0.421875 "/></g></g></g><g fill="#000000" fill-opacity="1"><g transform="translate(197.016068, 45.149743)"><g><path d="M 2.078125 0 L 2.078125 -19.59375 L 6.6875 -19.59375 L 14.125 -9.65625 L 14.125 -19.59375 L 19.703125 -19.59375 L 19.703125 0 L 15.109375 0 L 7.671875 -9.984375 L 7.671875 0 Z M 2.078125 0 "/></g></g></g><g fill="#000000" fill-opacity="1"><g transform="translate(218.81937, 45.149743)"><g><path d="M 6.75 0 L 6.75 -14.359375 L 0.78125 -14.359375 L 0.78125 -19.59375 L 18.328125 -19.59375 L 18.328125 -14.359375 L 12.375 -14.359375 L 12.375 0 Z M 6.75 0 "/></g></g></g></svg>